<svg width="338" height="147" viewBox="0 0 338 147" fill="none" xmlns="http://www.w3.org/2000/svg">
<path d="M105.059 89.4336V114.824H2.71484L0.761719 94.707L57.8906 2.8125H83.8672L55.6445 49.0039L32.207 89.4336H105.059ZM90.7031 2.8125V145H57.793V2.8125H90.7031ZM218.535 60.918V86.8945C218.535 97.1159 217.331 106.003 214.922 113.555C212.578 121.107 209.193 127.357 204.766 132.305C200.404 137.253 195.195 140.931 189.141 143.34C183.086 145.749 176.413 146.953 169.121 146.953C163.262 146.953 157.793 146.204 152.715 144.707C147.637 143.145 143.047 140.801 138.945 137.676C134.909 134.486 131.426 130.514 128.496 125.762C125.566 121.009 123.32 115.41 121.758 108.965C120.195 102.454 119.414 95.0977 119.414 86.8945V60.918C119.414 50.6315 120.586 41.7448 122.93 34.2578C125.339 26.7057 128.757 20.4557 133.184 15.5078C137.611 10.5599 142.852 6.88151 148.906 4.47266C154.961 2.0638 161.634 0.859375 168.926 0.859375C174.785 0.859375 180.221 1.64062 185.234 3.20312C190.312 4.70052 194.902 7.04427 199.004 10.2344C203.105 13.3594 206.589 17.2982 209.453 22.0508C212.383 26.8034 214.629 32.4349 216.191 38.9453C217.754 45.3906 218.535 52.7148 218.535 60.918ZM185.625 90.8984V56.7188C185.625 52.1615 185.365 48.1901 184.844 44.8047C184.388 41.4193 183.672 38.5547 182.695 36.2109C181.784 33.8672 180.645 31.9792 179.277 30.5469C177.91 29.0495 176.348 27.9753 174.59 27.3242C172.897 26.6081 171.009 26.25 168.926 26.25C166.322 26.25 163.978 26.8034 161.895 27.9102C159.876 28.9518 158.151 30.6445 156.719 32.9883C155.286 35.332 154.18 38.457 153.398 42.3633C152.682 46.2695 152.324 51.0547 152.324 56.7188V90.8984C152.324 95.5208 152.552 99.5573 153.008 103.008C153.529 106.393 154.245 109.29 155.156 111.699C156.133 114.043 157.305 115.964 158.672 117.461C160.039 118.893 161.602 119.935 163.359 120.586C165.117 121.237 167.038 121.562 169.121 121.562C171.66 121.562 173.939 121.042 175.957 120C177.975 118.958 179.701 117.266 181.133 114.922C182.63 112.513 183.737 109.355 184.453 105.449C185.234 101.478 185.625 96.6276 185.625 90.8984ZM337.09 89.4336V114.824H234.746L232.793 94.707L289.922 2.8125H315.898L287.676 49.0039L264.238 89.4336H337.09ZM322.734 2.8125V145H289.824V2.8125H322.734Z" fill="#3B4EF2"/>
</svg>
