<svg width="433" height="182" viewBox="0 0 433 182" fill="none" xmlns="http://www.w3.org/2000/svg">
<g clip-path="url(#clip0_916_11102)">
<path d="M101.867 68.9121H101.854L101.867 68.9251V68.9121Z" fill="#3B4EF2"/>
<path d="M19.5252 65.1347L41.1836 80.3211L60.3843 61.9304L70.727 71.2816L93.134 56.4443C87.3825 54.412 81.0447 53.3771 74.0955 53.3771C60.1473 53.3771 49.2182 56.3196 41.3084 62.2171L40.8717 61.7807L45.1885 41.9561H115.067V5.32422H11.9771L0.0625 71.6307L7.46081 78.1766L19.5252 65.1347V65.1347Z" fill="#3B4EF2"/>
<path d="M101.867 81.3936L79.4596 96.2309L69.117 86.8796L49.9163 105.27L28.2578 90.084L16.1935 103.126L8.79517 96.58L5.17711 116.704H45.2877C49.6044 110.233 56.8655 107.003 67.0709 107.003C73.6832 107.003 78.9357 108.874 82.8157 112.602C86.6958 116.342 88.642 121.442 88.642 127.9C88.642 133.798 86.4463 138.611 82.0672 142.339C77.6756 146.079 72.2485 147.949 65.7859 147.949C58.5997 147.949 52.9106 146.304 48.7436 142.987C45.5746 140.693 43.566 137.376 42.7051 133.075H0.211633C-0.212553 136.379 -0.000459862 139.97 0.860389 143.847C1.72124 147.725 3.55522 152.002 6.36234 156.677C9.16945 161.353 12.8624 165.517 17.466 169.183C22.0697 172.849 28.4325 175.903 36.5544 178.347C44.6764 180.791 53.9835 182.013 64.4884 182.013C85.6228 182.013 102.129 177.125 113.993 167.35C125.858 157.575 131.784 144.857 131.784 129.197C131.784 117.477 129.539 107.777 125.072 100.071L118.348 103.612L101.879 81.3936H101.867Z" fill="#3B4EF2"/>
<path d="M117.974 78.6748C113.27 74.2984 107.893 71.0567 101.867 68.9121L118.336 91.1306L125.06 87.5896C123.114 84.2357 120.756 81.2682 117.974 78.6748Z" fill="#3B4EF2"/>
<path d="M262.085 88.3504L252.977 94.2479L247.313 81.3682L235.673 100.42C235.723 101.978 235.748 103.587 235.748 105.245C235.748 134.421 228.05 148.996 212.667 148.996C209.211 148.996 206.155 148.311 203.497 146.952C200.84 145.592 198.719 143.61 197.134 141.029C195.55 138.448 194.252 135.817 193.254 133.162C192.244 130.506 191.533 127.276 191.096 123.461C190.659 119.658 190.372 116.491 190.235 113.973C190.085 111.454 190.023 108.549 190.023 105.245C190.023 105.145 190.023 105.045 190.023 104.946L182.338 96.4049L165.844 111.454L149.813 91.5174C149.301 95.9062 149.039 100.47 149.039 105.245C149.039 116.317 150.399 126.341 153.131 135.319C155.863 144.296 159.382 151.627 163.698 157.3C168.015 162.973 173.006 167.724 178.682 171.527C184.359 175.342 190.035 178.035 195.725 179.606C201.401 181.189 207.115 181.975 212.867 181.975C218.618 181.975 224.332 181.189 230.009 179.606C235.685 178.023 241.362 175.329 247.051 171.527C252.728 167.724 257.731 162.973 262.035 157.3C266.352 151.627 269.87 144.296 272.602 135.319C275.259 126.566 276.619 116.828 276.682 106.093L270.169 111.454L262.047 88.3379L262.085 88.3504Z" fill="#3B4EF2"/>
<path d="M263.894 50.26C261.162 41.2828 257.644 33.9514 253.327 28.2783C249.01 22.6052 243.982 17.8673 238.231 14.052C232.479 10.2491 226.765 7.55597 221.089 5.9725C215.412 4.38902 209.685 3.60352 203.946 3.60352C198.207 3.60352 192.518 4.38902 186.904 5.9725C181.29 7.55597 175.651 10.2491 169.974 14.052C164.298 17.8548 159.295 22.6052 154.99 28.2783C150.674 33.9514 147.155 41.2828 144.423 50.26C142.864 55.372 141.778 60.8206 141.104 66.5935L157.136 86.5303L173.63 71.481L181.315 80.0218C181.315 75.8449 181.39 72.2665 181.527 69.324C181.664 66.3067 182.176 62.5288 183.037 58.0028C183.897 53.4768 185.083 49.8111 186.592 47.0057C188.102 44.2004 190.373 41.7566 193.392 39.6744C196.411 37.5921 200.079 36.5448 204.396 36.5448C218.631 36.5448 226.154 49.5243 226.965 75.4709L238.605 56.4193L244.269 69.2991L253.377 63.4016L261.499 86.5178L268.011 81.1564C268.011 80.8697 268.024 80.5954 268.024 80.3086C268.024 69.2492 266.651 59.2247 263.931 50.235L263.894 50.26Z" fill="#3B4EF2"/>
</g>
<path d="M417.98 88.3504L408.873 94.2479L403.209 81.3682L391.568 100.42C391.618 101.978 391.643 103.587 391.643 105.245C391.643 134.421 383.946 148.996 368.563 148.996C365.107 148.996 362.05 148.311 359.393 146.952C356.735 145.592 354.614 143.61 353.03 141.029C351.445 138.448 350.148 135.817 349.15 133.162C348.139 130.506 347.428 127.276 346.991 123.461C346.555 119.658 346.268 116.491 346.131 113.973C345.981 111.454 345.918 108.549 345.918 105.245C345.918 105.145 345.918 105.045 345.918 104.946L338.233 96.4049L321.74 111.454L305.708 91.5174C305.197 95.9062 304.935 100.47 304.935 105.245C304.935 116.317 306.294 126.341 309.027 135.319C311.759 144.296 315.277 151.627 319.594 157.3C323.911 162.973 328.901 167.724 334.578 171.527C340.254 175.342 345.931 178.035 351.62 179.606C357.297 181.189 363.011 181.975 368.762 181.975C374.514 181.975 380.228 181.189 385.904 179.606C391.581 178.023 397.258 175.329 402.947 171.527C408.623 167.724 413.626 162.973 417.93 157.3C422.247 151.627 425.765 144.296 428.498 135.319C431.155 126.566 432.515 116.828 432.577 106.093L426.065 111.454L417.943 88.3379L417.98 88.3504Z" fill="#3B4EF2"/>
<path d="M419.79 50.26C417.057 41.2828 413.539 33.9514 409.222 28.2783C404.906 22.6052 399.878 17.8673 394.126 14.052C388.375 10.2491 382.661 7.55597 376.984 5.9725C371.308 4.38902 365.581 3.60352 359.842 3.60352C354.103 3.60352 348.414 4.38902 342.8 5.9725C337.185 7.55597 331.546 10.2491 325.87 14.052C320.193 17.8548 315.19 22.6052 310.886 28.2783C306.569 33.9514 303.051 41.2828 300.319 50.26C298.759 55.372 297.674 60.8206 297 66.5935L313.032 86.5303L329.525 71.481L337.21 80.0218C337.21 75.8449 337.285 72.2665 337.422 69.324C337.56 66.3067 338.071 62.5288 338.932 58.0028C339.793 53.4768 340.978 49.8111 342.488 47.0057C343.997 44.2004 346.268 41.7566 349.287 39.6744C352.306 37.5921 355.974 36.5448 360.291 36.5448C374.526 36.5448 382.049 49.5243 382.86 75.4709L394.501 56.4193L400.165 69.2991L409.272 63.4016L417.394 86.5178L423.907 81.1564C423.907 80.8697 423.919 80.5954 423.919 80.3086C423.919 69.2492 422.547 59.2247 419.827 50.235L419.79 50.26Z" fill="#3B4EF2"/>
<defs>
<clipPath id="clip0_916_11102">
<rect width="365" height="182" fill="white"/>
</clipPath>
</defs>
</svg>
