<svg width="26" height="29" viewBox="0 0 26 29" fill="none" xmlns="http://www.w3.org/2000/svg">
<path d="M25.75 8.8335V27.2402C25.7513 27.4263 25.716 27.6108 25.646 27.7831C25.576 27.9555 25.4727 28.1124 25.3421 28.2449C25.2115 28.3774 25.056 28.4828 24.8846 28.5552C24.7133 28.6276 24.5293 28.6655 24.3432 28.6668H1.65675C1.2839 28.6668 0.926304 28.5188 0.662528 28.2553C0.398752 27.9918 0.250375 27.6343 0.25 27.2615V1.73883C0.25 0.97808 0.886083 0.333496 1.6695 0.333496H17.2457L25.75 8.8335ZM22.9167 10.2502H15.8333V3.16683H3.08333V25.8335H22.9167V10.2502Z" fill="#6B7280"/>
</svg>
