<svg
  width="16"
  height="16"
  viewBox="0 0 16 16"
  fill="none"
  xmlns="http://www.w3.org/2000/svg"
>
  <path
    d="M0.5 6.33333L2.16667 6.33333L2.16667 2.16667L13.8333 2.16667L13.8333 13.8333L9.66667 13.8333L9.66667 15.5L14.6667 15.5C14.8877 15.5 15.0996 15.4122 15.2559 15.2559C15.4122 15.0996 15.5 14.8877 15.5 14.6667L15.5 1.33333C15.5 1.11232 15.4122 0.900359 15.2559 0.744078C15.0996 0.587798 14.8877 0.500001 14.6667 0.500001L1.33333 0.5C1.11232 0.5 0.900358 0.587797 0.744078 0.744078C0.587797 0.900358 0.5 1.11232 0.5 1.33333L0.5 6.33333ZM4.4225 12.7558L9.17833 8L8 6.82167L3.24417 11.5775L0.5 8.83333L0.499999 15.5L7.16667 15.5L4.4225 12.7558Z"
    fill="#ccc"
  />
</svg>