<svg width="15" height="15" viewBox="0 0 15 15" fill="none" xmlns="http://www.w3.org/2000/svg">
<path d="M10.5677 1.2502L9.06775 2.7502H1.75V13.2502H12.25V5.93245L13.75 4.43245V14.0002C13.75 14.1991 13.671 14.3899 13.5303 14.5305C13.3897 14.6712 13.1989 14.7502 13 14.7502H1C0.801088 14.7502 0.610322 14.6712 0.46967 14.5305C0.329018 14.3899 0.25 14.1991 0.25 14.0002V2.0002C0.25 1.80128 0.329018 1.61052 0.46967 1.46987C0.610322 1.32921 0.801088 1.2502 1 1.2502H10.5677V1.2502ZM13.3638 0.575195L14.425 1.6372L7.531 8.5312L6.472 8.53345L6.4705 7.4707L13.3638 0.575195V0.575195Z" fill="#3B4EF2"/>
</svg>
