<svg width="200" height="196" viewBox="0 0 200 196" fill="none" xmlns="http://www.w3.org/2000/svg">
  <g clip-path="url(#empty_state_2)">
  <path d="M126.968 43.9052H73.0768C71.8487 43.9067 70.6714 44.3953 69.803 45.2636C68.9346 46.132 68.4461 47.3094 68.4446 48.5375V168.311L67.8269 168.5L54.6065 172.548C53.98 172.739 53.3032 172.674 52.7249 172.367C52.1465 172.059 51.7137 171.535 51.5216 170.909L12.1969 42.4569C12.0055 41.8303 12.0708 41.1534 12.3783 40.5749C12.6857 39.9965 13.2103 39.5637 13.8367 39.3718L34.2094 33.1338L93.2703 15.0557L113.643 8.81765C113.953 8.72223 114.279 8.68889 114.602 8.71953C114.924 8.75017 115.238 8.84419 115.525 8.99622C115.811 9.14824 116.065 9.35528 116.272 9.60549C116.478 9.85569 116.633 10.1442 116.728 10.4544L126.78 43.2876L126.968 43.9052Z" fill="#F2F2F2"/>
  <path d="M138.728 43.2878L126.613 3.71616C126.411 3.05682 126.082 2.44366 125.643 1.91172C125.205 1.37978 124.666 0.939482 124.057 0.615985C123.448 0.292488 122.781 0.0921297 122.095 0.0263678C121.409 -0.039394 120.716 0.0307289 120.057 0.232722L91.4143 8.99999L32.3565 27.0811L3.71387 35.8515C2.38328 36.2601 1.26916 37.1799 0.616061 38.4091C-0.0370401 39.6382 -0.175768 41.0763 0.230334 42.4076L41.6363 177.647C41.9662 178.722 42.6319 179.663 43.5356 180.331C44.4393 181 45.5336 181.361 46.6577 181.362C47.178 181.362 47.6954 181.284 48.1925 181.131L67.827 175.121L68.4446 174.93V174.284L67.827 174.473L48.0103 180.541C46.8358 180.899 45.5673 180.776 44.483 180.2C43.3986 179.624 42.587 178.642 42.2262 177.468L0.823386 42.2254C0.64461 41.6439 0.582302 41.0328 0.640027 40.4272C0.697753 39.8216 0.874373 39.2332 1.15979 38.696C1.4452 38.1587 1.8338 37.683 2.30332 37.2961C2.77284 36.9092 3.31407 36.6187 3.89601 36.4413L32.5386 27.671L91.5966 9.59292L120.239 0.822565C120.681 0.68786 121.139 0.619176 121.601 0.618746C122.591 0.62097 123.555 0.940272 124.351 1.52988C125.147 2.11949 125.733 2.94843 126.023 3.89528L138.082 43.2878L138.274 43.9054H138.916L138.728 43.2878Z" fill="#3F3D56"/>
  <path d="M37.8858 39.4729C37.2905 39.4725 36.7111 39.2813 36.2325 38.9274C35.7539 38.5736 35.4013 38.0757 35.2264 37.5067L31.2488 24.5143C31.1419 24.1653 31.1048 23.7987 31.1396 23.4354C31.1745 23.072 31.2805 22.7191 31.4518 22.3968C31.623 22.0744 31.8561 21.789 32.1376 21.5567C32.4192 21.3245 32.7438 21.15 33.0928 21.0432L87.4254 4.40922C88.1303 4.19414 88.8916 4.26749 89.5424 4.61318C90.1932 4.95887 90.6803 5.54864 90.8968 6.25306L94.8744 19.2456C95.0893 19.9505 95.0159 20.7118 94.6703 21.3625C94.3246 22.0133 93.7349 22.5004 93.0306 22.7169L38.6977 39.3509C38.4346 39.4316 38.161 39.4728 37.8858 39.4729V39.4729Z" fill="#6C63FF"/>
  <path d="M58.7222 13.8829C62.1333 13.8829 64.8985 11.1177 64.8985 7.70658C64.8985 4.2955 62.1333 1.53027 58.7222 1.53027C55.3111 1.53027 52.5459 4.2955 52.5459 7.70658C52.5459 11.1177 55.3111 13.8829 58.7222 13.8829Z" fill="#6C63FF"/>
  <path d="M58.7223 11.6175C60.8823 11.6175 62.6333 9.86644 62.6333 7.70644C62.6333 5.54644 60.8823 3.79541 58.7223 3.79541C56.5623 3.79541 54.8113 5.54644 54.8113 7.70644C54.8113 9.86644 56.5623 11.6175 58.7223 11.6175Z" fill="white"/>
  <path d="M186.103 179.784H81.7238C81.0279 179.784 80.3607 179.507 79.8686 179.015C79.3765 178.523 79.0997 177.855 79.0989 177.16V52.0893C79.0997 51.3933 79.3765 50.7261 79.8686 50.234C80.3607 49.7419 81.0279 49.4651 81.7238 49.4644H186.103C186.799 49.4652 187.466 49.742 187.959 50.2341C188.451 50.7262 188.727 51.3934 188.728 52.0893V177.16C188.727 177.855 188.451 178.523 187.959 179.015C187.466 179.507 186.799 179.784 186.103 179.784V179.784Z" fill="#E6E6E6"/>
  <path d="M138.083 43.2876H73.077C71.6853 43.2896 70.3511 43.8433 69.367 44.8274C68.3829 45.8115 67.8291 47.1457 67.8271 48.5375V174.472L68.4448 174.284V48.5375C68.4463 47.3094 68.9348 46.132 69.8032 45.2636C70.6716 44.3952 71.8489 43.9067 73.077 43.9052H138.274L138.083 43.2876ZM194.75 43.2876H73.077C71.6853 43.2896 70.3511 43.8433 69.367 44.8274C68.3829 45.8115 67.8291 47.1457 67.8271 48.5375V189.975C67.8291 191.367 68.3829 192.701 69.367 193.685C70.3511 194.669 71.6853 195.223 73.077 195.225H194.75C196.142 195.223 197.476 194.669 198.46 193.685C199.444 192.701 199.998 191.367 200 189.975V48.5375C199.998 47.1457 199.444 45.8115 198.46 44.8274C197.476 43.8433 196.142 43.2896 194.75 43.2876V43.2876ZM199.382 189.975C199.381 191.203 198.892 192.38 198.024 193.249C197.156 194.117 195.978 194.606 194.75 194.607H73.077C71.8489 194.606 70.6716 194.117 69.8032 193.249C68.9348 192.38 68.4463 191.203 68.4448 189.975V48.5375C68.4463 47.3094 68.9348 46.132 69.8032 45.2636C70.6716 44.3952 71.8489 43.9067 73.077 43.9052H194.75C195.978 43.9067 197.156 44.3952 198.024 45.2636C198.892 46.132 199.381 47.3094 199.382 48.5375V189.975Z" fill="#3F3D56"/>
  <path d="M162.325 56.8756H105.502C104.766 56.8747 104.059 56.5816 103.538 56.0606C103.017 55.5395 102.724 54.8331 102.723 54.0962V40.5083C102.724 39.7715 103.017 39.065 103.538 38.544C104.059 38.0229 104.766 37.7298 105.502 37.729H162.325C163.061 37.7298 163.768 38.0229 164.289 38.544C164.81 39.065 165.103 39.7715 165.104 40.5083V54.0962C165.103 54.8331 164.81 55.5395 164.289 56.0606C163.768 56.5816 163.061 56.8747 162.325 56.8756V56.8756Z" fill="#6C63FF"/>
  <path d="M133.914 38.6558C137.325 38.6558 140.09 35.8906 140.09 32.4795C140.09 29.0684 137.325 26.3032 133.914 26.3032C130.503 26.3032 127.737 29.0684 127.737 32.4795C127.737 35.8906 130.503 38.6558 133.914 38.6558Z" fill="#6C63FF"/>
  <path d="M133.914 36.2412C135.991 36.2412 137.675 34.5569 137.675 32.4792C137.675 30.4016 135.991 28.7173 133.914 28.7173C131.836 28.7173 130.152 30.4016 130.152 32.4792C130.152 34.5569 131.836 36.2412 133.914 36.2412Z" fill="white"/>
  </g>
  <defs>
  <clipPath id="empty_state_2">
  <rect width="200" height="195.225" fill="white"/>
  </clipPath>
  </defs>
  </svg>
  