<svg width="61" height="54" viewBox="0 0 61 54" fill="none" xmlns="http://www.w3.org/2000/svg">
<path d="M3.74999 53.25C2.97645 53.25 2.23458 52.9427 1.6876 52.3957C1.14062 51.8488 0.833328 51.1069 0.833328 50.3333V3.66667C0.833328 2.89312 1.14062 2.15125 1.6876 1.60427C2.23458 1.05729 2.97645 0.75 3.74999 0.75H25.3742L31.2075 6.58333H53.3333C54.1069 6.58333 54.8487 6.89062 55.3957 7.43761C55.9427 7.98459 56.25 8.72645 56.25 9.5V18.25H50.4167V12.4167H28.7925L22.9592 6.58333H6.66666V41.5775L11.0417 24.0833H60.625L53.8875 51.0421C53.7295 51.6728 53.3653 52.2326 52.8527 52.6327C52.3401 53.0327 51.7085 53.25 51.0583 53.25H3.74999V53.25ZM53.1525 29.9167H15.5975L11.2225 47.4167H48.7775L53.1525 29.9167Z" fill="#F1EFEF"/>
</svg>
