<svg width="16" height="18" viewBox="0 0 16 18" fill="none" xmlns="http://www.w3.org/2000/svg">
<path d="M15.5 5.66666V16.4942C15.5008 16.6036 15.48 16.7121 15.4388 16.8135C15.3976 16.9149 15.3369 17.0072 15.2601 17.0851C15.1832 17.1631 15.0918 17.2251 14.991 17.2677C14.8901 17.3102 14.7819 17.3326 14.6725 17.3333H1.3275C1.10818 17.3333 0.897826 17.2463 0.742664 17.0912C0.587501 16.9362 0.500221 16.726 0.5 16.5067V1.49332C0.5 1.04582 0.874167 0.666656 1.335 0.666656H10.4975L15.5 5.66666ZM13.8333 6.49999H9.66667V2.33332H2.16667V15.6667H13.8333V6.49999ZM4.66667 4.83332H7.16667V6.49999H4.66667V4.83332ZM4.66667 8.16666H11.3333V9.83332H4.66667V8.16666ZM4.66667 11.5H11.3333V13.1667H4.66667V11.5Z" fill="#3B4EF2"/>
</svg>
