<svg width="70" height="25" viewBox="0 0 70 25" fill="none" xmlns="http://www.w3.org/2000/svg">
<g clip-path="url(#clip0_415_10849)">
<path d="M58.3424 0V11.6476H69.9981C69.9981 5.2138 64.7789 0 58.3424 0Z" fill="#3B4EF2"/>
<path d="M70 12.771V24.4186H58.3442C58.3442 17.9848 63.5635 12.771 70 12.771Z" fill="black"/>
<path d="M0 8.43604H5.39079C6.8635 8.43604 8.02597 8.8263 8.88185 9.60682C9.73591 10.3873 10.1629 11.4031 10.1629 12.6541C10.1629 13.4638 9.94942 14.1659 9.5224 14.7623C9.09537 15.3586 8.53512 15.7817 7.84348 16.0315C8.68294 16.2522 9.35998 16.7008 9.87643 17.3774C10.3911 18.0539 10.6502 18.849 10.6502 19.7609C10.6502 21.0265 10.2013 22.0641 9.30341 22.8738C8.40555 23.6835 7.23395 24.0884 5.79045 24.0884H0V8.43604ZM2.62787 15.0595H5.03493C5.8014 15.0595 6.40544 14.8607 6.84707 14.4632C7.2887 14.0656 7.50952 13.5368 7.50952 12.873C7.50952 12.2092 7.28505 11.6621 6.83612 11.2718C6.3872 10.8815 5.7649 10.6864 4.96924 10.6864H2.62787V15.0577V15.0595ZM2.62787 21.8362H5.32327C6.11893 21.8362 6.75583 21.6338 7.23395 21.2289C7.71208 20.8241 7.95115 20.277 7.95115 19.584C7.95115 18.891 7.72668 18.3366 7.27775 17.9172C6.82882 17.4977 6.20653 17.288 5.41087 17.288H2.62787V21.8362Z" fill="black"/>
<path d="M19.3295 20.3355L21.4938 21.0193C21.1854 22.0059 20.6069 22.8193 19.7601 23.4594C18.9134 24.0995 17.8714 24.4204 16.6341 24.4204C15.103 24.4204 13.8018 23.8989 12.7342 22.8539C11.6667 21.809 11.132 20.4102 11.132 18.6595C11.132 17.011 11.6521 15.6578 12.6886 14.5983C13.727 13.5387 14.9533 13.0081 16.3676 13.0081C18.0174 13.0081 19.3057 13.5132 20.2328 14.5199C21.1599 15.5283 21.6252 16.8851 21.6252 18.5921C21.6252 19.048 21.6033 19.3197 21.5595 19.409H13.696C13.7252 20.2187 14.0226 20.888 14.5902 21.4187C15.1577 21.9494 15.8384 22.2138 16.6341 22.2138C18.0192 22.2138 18.917 21.5883 19.3295 20.3373V20.3355ZM13.7635 17.5325H19.043C19.0138 16.8559 18.7747 16.2888 18.3258 15.8329C17.8768 15.377 17.2326 15.149 16.3932 15.149C15.6267 15.149 15.0081 15.3879 14.5372 15.8657C14.0664 16.3435 13.8073 16.8997 13.7635 17.5325Z" fill="black"/>
<path d="M22.8407 10.7321C22.5158 10.4093 22.3552 10.019 22.3552 9.5613C22.3552 9.10356 22.5176 8.71148 22.8407 8.37958C23.1637 8.04767 23.5542 7.88354 24.0122 7.88354C24.4703 7.88354 24.8809 8.04585 25.2057 8.36863C25.5287 8.69324 25.6912 9.08897 25.6912 9.5613C25.6912 10.0336 25.5287 10.4075 25.2057 10.7321C24.8827 11.0567 24.4831 11.2172 24.0122 11.2172C23.5414 11.2172 23.1655 11.0549 22.8407 10.7321ZM25.2933 24.0885H22.7531V13.3381H25.2933V24.0885Z" fill="black"/>
<path d="M29.8227 24.0884H27.2825V13.338H29.7352V14.7075C30.029 14.1769 30.4742 13.7665 31.071 13.4711C31.6677 13.1775 32.2827 13.0298 32.916 13.0298C33.6368 13.0298 34.2865 13.1921 34.8595 13.5149C35.4344 13.8395 35.8614 14.31 36.1406 14.9282C36.8925 13.6626 38.0549 13.0298 39.6317 13.0298C40.6919 13.0298 41.5898 13.3763 42.3271 14.0674C43.0625 14.7586 43.4311 15.7744 43.4311 17.1129V24.0884H40.9565V17.5324C40.9565 16.8704 40.7832 16.3361 40.4364 15.9312C40.0897 15.5264 39.5714 15.3239 38.8798 15.3239C38.1882 15.3239 37.679 15.5519 37.2666 16.0078C36.8541 16.4637 36.6479 17.0309 36.6479 17.7074V24.0865H34.1295V17.5305C34.1295 16.8686 33.9562 16.3342 33.6094 15.9294C33.2627 15.5245 32.7444 15.3221 32.0528 15.3221C31.3612 15.3221 30.8338 15.5464 30.4286 15.995C30.0235 16.4436 29.8209 17.0144 29.8209 17.7056V24.0847L29.8227 24.0884Z" fill="black"/>
<path d="M44.579 21.1742C44.579 20.2624 44.8764 19.5293 45.4732 18.9785C46.0699 18.426 46.8546 18.0777 47.8255 17.9299L50.5866 17.5105C51.1176 17.4376 51.3823 17.1786 51.3823 16.7373C51.3823 16.2522 51.2125 15.8583 50.8749 15.5556C50.5355 15.2547 50.0282 15.1033 49.3511 15.1033C48.6741 15.1033 48.1868 15.2838 47.8054 15.6449C47.4222 16.006 47.2014 16.4729 47.143 17.0473L44.8016 16.5166C44.9038 15.5446 45.3692 14.7167 46.194 14.0328C47.0189 13.3489 48.0646 13.0061 49.3311 13.0061C50.8914 13.0061 52.0447 13.3818 52.7874 14.1313C53.5302 14.8826 53.9025 15.8455 53.9025 17.0236V22.365C53.9025 23.0708 53.9463 23.6452 54.0357 24.0866H51.6505C51.5775 23.8659 51.5392 23.41 51.5392 22.717C50.833 23.8513 49.7271 24.4166 48.2252 24.4166C47.1357 24.4166 46.2561 24.0957 45.5845 23.4556C44.9148 22.8155 44.579 22.0532 44.579 21.1706V21.1742ZM48.7106 22.4106C49.5062 22.4106 50.1504 22.1936 50.6432 21.7596C51.1359 21.3256 51.3823 20.6162 51.3823 19.6296V19.1445L48.5774 19.5639C47.6193 19.7262 47.1412 20.2113 47.1412 21.021C47.1412 21.404 47.2817 21.7304 47.5609 22.004C47.8401 22.2757 48.2233 22.4125 48.7088 22.4125L48.7106 22.4106Z" fill="black"/>
</g>
<defs>
<clipPath id="clip0_415_10849">
<rect width="70" height="24.4186" fill="white"/>
</clipPath>
</defs>
</svg>
