<svg width="18" height="22" viewBox="0 0 18 22" fill="none" xmlns="http://www.w3.org/2000/svg">
<path d="M14.5713 8C14.5713 6.4087 13.9391 4.88258 12.8139 3.75736C11.6887 2.63214 10.1626 2 8.57129 2C6.97999 2 5.45387 2.63214 4.32865 3.75736C3.20343 4.88258 2.57129 6.4087 2.57129 8V16H14.5713V8ZM16.5713 16.667L16.9713 17.2C17.027 17.2743 17.0609 17.3626 17.0693 17.4551C17.0776 17.5476 17.06 17.6406 17.0185 17.7236C16.977 17.8067 16.9131 17.8765 16.8342 17.9253C16.7552 17.9741 16.6641 18 16.5713 18H0.571289C0.478433 18 0.387412 17.9741 0.308424 17.9253C0.229436 17.8765 0.165602 17.8067 0.124076 17.7236C0.0825492 17.6406 0.0649707 17.5476 0.0733096 17.4551C0.0816486 17.3626 0.115576 17.2743 0.171289 17.2L0.571289 16.667V8C0.571289 5.87827 1.41414 3.84344 2.91444 2.34315C4.41473 0.842855 6.44956 0 8.57129 0C10.693 0 12.7279 0.842855 14.2281 2.34315C15.7284 3.84344 16.5713 5.87827 16.5713 8V16.667ZM6.07129 19H11.0713C11.0713 19.663 10.8079 20.2989 10.3391 20.7678C9.87022 21.2366 9.23433 21.5 8.57129 21.5C7.90825 21.5 7.27236 21.2366 6.80352 20.7678C6.33468 20.2989 6.07129 19.663 6.07129 19Z" fill="#707070"/>
</svg>
