<svg width="14" height="16" viewBox="0 0 14 16" fill="none" xmlns="http://www.w3.org/2000/svg">
<path d="M9.25 2H1.75V14H12.25V5H9.25V2ZM0.25 1.244C0.25 0.833 0.58525 0.5 0.99925 0.5H10L13.75 4.25V14.7448C13.7507 14.8432 13.732 14.9409 13.6949 15.0322C13.6579 15.1234 13.6032 15.2065 13.534 15.2766C13.4649 15.3468 13.3826 15.4026 13.2919 15.4409C13.2011 15.4792 13.1037 15.4993 13.0052 15.5H0.99475C0.797784 15.4986 0.609263 15.4198 0.469913 15.2806C0.330563 15.1414 0.251571 14.953 0.25 14.756V1.244ZM6.25 7.25V5H7.75V7.25H10V8.75H7.75V11H6.25V8.75H4V7.25H6.25Z" fill="#3B4EF2"/>
</svg>
