<svg width="20" height="20" viewBox="0 0 20 20" fill="none" xmlns="http://www.w3.org/2000/svg">
<path d="M7.11199 4.1418C6.93882 4.13799 6.76876 4.18819 6.62547 4.2855C6.48217 4.38281 6.37275 4.52241 6.31242 4.68478C6.2521 4.84714 6.24386 5.02425 6.28885 5.19151C6.33385 5.35878 6.42984 5.5078 6.56348 5.61799L11.6628 9.98647L6.56348 14.3534C6.47103 14.4214 6.39361 14.5076 6.33606 14.6069C6.27851 14.7061 6.24208 14.8162 6.22903 14.9302C6.21599 15.0442 6.22663 15.1596 6.26027 15.2693C6.29392 15.379 6.34985 15.4806 6.42456 15.5677C6.49927 15.6548 6.59116 15.7254 6.69447 15.7753C6.79777 15.8252 6.91027 15.8532 7.02492 15.8577C7.13956 15.8621 7.25389 15.8429 7.36073 15.8011C7.46758 15.7592 7.56464 15.6958 7.64584 15.6148L13.4841 10.6196C13.5757 10.5414 13.6494 10.4443 13.6998 10.3348C13.7503 10.2254 13.7765 10.1062 13.7765 9.9857C13.7765 9.86517 13.7503 9.74605 13.6998 9.6366C13.6494 9.52715 13.5757 9.42995 13.4841 9.35171L7.64584 4.35173C7.49836 4.22073 7.30919 4.14625 7.11199 4.14161V4.1418Z" fill="#5F5C5C"/>
</svg>
