<svg width="20" height="22" viewBox="0 0 20 22" fill="none" xmlns="http://www.w3.org/2000/svg">
<path d="M1.48288 16C1.06015 15.269 0.731548 14.4875 0.504883 13.674C0.99819 13.4231 1.41248 13.0406 1.70191 12.5689C1.99135 12.0972 2.14465 11.5546 2.14486 11.0011C2.14506 10.4477 1.99217 9.90495 1.70309 9.43301C1.414 8.96106 1 8.57828 0.506883 8.32701C0.958919 6.69249 1.81961 5.19996 3.00788 3.99001C3.47198 4.29173 4.0105 4.45917 4.56386 4.47379C5.11722 4.48841 5.66384 4.34964 6.14321 4.07284C6.62259 3.79604 7.01604 3.392 7.28001 2.90545C7.54398 2.41889 7.66819 1.86878 7.63888 1.31601C9.28099 0.891628 11.0041 0.892317 12.6459 1.31801C12.6168 1.87077 12.7413 2.4208 13.0055 2.90721C13.2696 3.39363 13.6632 3.79748 14.1427 4.07407C14.6222 4.35065 15.1688 4.48919 15.7222 4.47436C16.2755 4.45952 16.8139 4.29189 17.2779 3.99001C17.8569 4.58001 18.3709 5.25101 18.8029 6.00001C19.2359 6.74901 19.5599 7.53001 19.7809 8.32601C19.2876 8.57691 18.8733 8.95938 18.5839 9.43111C18.2944 9.90284 18.1411 10.4454 18.1409 10.9989C18.1407 11.5523 18.2936 12.0951 18.5827 12.567C18.8718 13.039 19.2858 13.4217 19.7789 13.673C19.3268 15.3075 18.4662 16.8001 17.2779 18.01C16.8138 17.7083 16.2753 17.5408 15.7219 17.5262C15.1685 17.5116 14.6219 17.6504 14.1426 17.9272C13.6632 18.204 13.2697 18.608 13.0058 19.0946C12.7418 19.5811 12.6176 20.1312 12.6469 20.684C11.0048 21.1084 9.28165 21.1077 7.63988 20.682C7.66893 20.1292 7.54448 19.5792 7.2803 19.0928C7.01613 18.6064 6.62253 18.2025 6.14305 17.9259C5.66358 17.6494 5.11694 17.5108 4.56361 17.5257C4.01028 17.5405 3.47184 17.7081 3.00788 18.01C2.41687 17.407 1.90448 16.7316 1.48288 16ZM7.14288 16.196C8.20851 16.8106 9.00973 17.797 9.39288 18.966C9.89188 19.013 10.3929 19.014 10.8919 18.967C11.2753 17.7979 12.0769 16.8114 13.1429 16.197C14.2081 15.5807 15.4634 15.3795 16.6679 15.632C16.9579 15.224 17.2079 14.789 17.4159 14.334C16.5953 13.4174 16.142 12.2302 16.1429 11C16.1429 9.74001 16.6129 8.56301 17.4159 7.66601C17.2064 7.21115 16.9553 6.77664 16.6659 6.36801C15.4622 6.62032 14.2077 6.41948 13.1429 5.80401C12.0773 5.18938 11.276 4.20299 10.8929 3.03401C10.3939 2.98701 9.89288 2.98601 9.39388 3.03301C9.01048 4.20215 8.20889 5.18857 7.14288 5.80301C6.07767 6.41932 4.82236 6.62053 3.61788 6.36801C3.32845 6.77629 3.07801 7.21087 2.86988 7.66601C3.69045 8.58257 4.14377 9.7698 4.14288 11C4.14288 12.26 3.67288 13.437 2.86988 14.334C3.07935 14.7889 3.33042 15.2234 3.61988 15.632C4.8236 15.3797 6.07809 15.5805 7.14288 16.196ZM10.1429 14C9.34723 14 8.58417 13.6839 8.02156 13.1213C7.45895 12.5587 7.14288 11.7957 7.14288 11C7.14288 10.2044 7.45895 9.44129 8.02156 8.87869C8.58417 8.31608 9.34723 8.00001 10.1429 8.00001C10.9385 8.00001 11.7016 8.31608 12.2642 8.87869C12.8268 9.44129 13.1429 10.2044 13.1429 11C13.1429 11.7957 12.8268 12.5587 12.2642 13.1213C11.7016 13.6839 10.9385 14 10.1429 14ZM10.1429 12C10.4081 12 10.6625 11.8946 10.85 11.7071C11.0375 11.5196 11.1429 11.2652 11.1429 11C11.1429 10.7348 11.0375 10.4804 10.85 10.2929C10.6625 10.1054 10.4081 10 10.1429 10C9.87767 10 9.62331 10.1054 9.43578 10.2929C9.24824 10.4804 9.14288 10.7348 9.14288 11C9.14288 11.2652 9.24824 11.5196 9.43578 11.7071C9.62331 11.8946 9.87767 12 10.1429 12Z" fill="#707070"/>
</svg>
