<svg width="372" height="372" viewBox="0 0 372 372" fill="none" xmlns="http://www.w3.org/2000/svg">
<path d="M127.134 123.343L68.2679 144.153L127.134 164.964L186 144.153L127.134 123.343V123.343Z" fill="black"/>
<path d="M68.2679 144.153L127.134 164.964L186 144.153" stroke="black" stroke-width="1.5"/>
<path d="M127.134 97.5637L68.2679 118.374L127.134 139.185L186 118.374L127.134 97.5637V97.5637Z" fill="#EDEEEF"/>
<path d="M68.2679 118.375L127.134 139.185L186 118.375" stroke="black" stroke-width="1.5"/>
<path d="M127.134 71.7847L68.2679 92.5953L127.134 113.406L186 92.5953L127.134 71.7847V71.7847Z" fill="#3B4EF2"/>
<path d="M68.2679 92.5952L127.134 113.406L186 92.5952" stroke="black" stroke-width="1.5"/>
<path d="M95.8883 282.346L104.237 289.596L126.502 261.126L136.521 269.511L189.399 199.981L236.155 282.346L248.957 268.199L272.335 306.584H76.4067L95.8883 282.346V282.346Z" fill="#F4F4F4"/>
<path d="M279.357 306.584H69.3846" stroke="black" stroke-width="1.5"/>
<path d="M224.445 161.819C224.445 161.819 186.428 226.972 173.707 291.429L169.018 294.187L191.439 301.616C191.439 301.616 241.108 226.7 244.076 217.189C247.045 207.679 241.956 161.819 241.956 161.819" fill="#3B4EF2"/>
<path d="M234.291 191.289C234.291 191.289 228.19 222.568 229.861 242.098C236.262 231.803 241.459 223.06 243.397 218.864L234.291 191.289Z" fill="black"/>
<path d="M235.445 91.6002V103.706L250.441 107.392V86.9626L235.445 83.2766V91.6002V91.6002Z" fill="#EDEEEF"/>
<path d="M243.916 95.7885C244.138 95.7885 244.317 95.609 244.317 95.3876C244.317 95.1661 244.138 94.9866 243.916 94.9866C243.695 94.9866 243.515 95.1661 243.515 95.3876C243.515 95.609 243.695 95.7885 243.916 95.7885Z" fill="black"/>
<path d="M237.757 95.7885C237.979 95.7885 238.158 95.609 238.158 95.3876C238.158 95.1661 237.979 94.9866 237.757 94.9866C237.536 94.9866 237.356 95.1661 237.356 95.3876C237.356 95.609 237.536 95.7885 237.757 95.7885Z" fill="black"/>
<path d="M239.564 97.7797V91.6001H236.468" stroke="black" stroke-width="1.5"/>
<path d="M244.672 91.6003H241.576" stroke="black" stroke-width="1.5"/>
<path d="M249.454 94.7664V96.9123C250.01 96.9123 250.543 96.6915 250.936 96.2984C251.329 95.9053 251.55 95.3722 251.55 94.8163C251.55 94.752 251.547 94.6884 251.541 94.6256C251.424 93.324 249.454 93.4595 249.454 94.7664Z" fill="#EDEEEF"/>
<path d="M249.454 96.9124C250.01 96.9124 250.543 96.6915 250.936 96.2985C251.329 95.9054 251.55 95.3723 251.55 94.8164" stroke="black" stroke-width="1.5"/>
<path d="M247.642 106.704L250.442 107.392" stroke="black" stroke-width="1.5"/>
<path d="M239.564 97.7847L240.918 98.1175" stroke="black" stroke-width="1.5" stroke-linecap="round"/>
<path d="M235.445 94.9866C235.445 94.9866 232.434 103.814 236.468 106.704C240.503 109.594 252.499 107.91 249.245 96.0639" stroke="black" stroke-width="1.5"/>
<path d="M237.226 97.9427C237.113 98.1231 237.103 98.3498 237.2 98.5395C237.297 98.7292 237.487 98.8539 237.699 98.8677C238.566 99.0613 239.877 97.3543 241.012 98.2836C241.012 98.2836 241.266 96.972 244.09 97.7566C246.915 98.5411 245.945 96.6763 245.945 96.6763" stroke="black" stroke-width="1.5"/>
<path d="M240.675 99.4621C241.739 99.9517 242.999 99.4858 243.488 98.4214" stroke="#3B4EF2" stroke-width="1.5" stroke-linecap="round" stroke-linejoin="round"/>
<path d="M234.365 87.335C234.365 87.335 235.382 91.7084 244.672 89.1101C244.672 89.1101 245.233 91.492 246.832 91.6002C248.431 91.7084 248.365 93.3073 248.365 93.3073" stroke="black" stroke-width="1.5"/>
<path d="M235.445 91.6001C235.445 91.6001 225.748 83.2355 237.137 82.8114C248.526 82.3873 254.692 85.9188 250.502 93.7184" stroke="black" stroke-width="1.5"/>
<path d="M224.445 129.071V161.819L270.838 173.221V136.749C270.838 123.816 262.009 112.554 249.45 109.468H249.45C243.427 107.987 237.058 109.358 232.177 113.184C227.296 117.011 224.445 122.869 224.445 129.071L224.445 129.071Z" fill="#EDEEEF"/>
<path d="M270.838 173.221L234.365 164.257C234.365 164.257 231.911 252.92 246.311 301.071L243.916 305.877H267.823C267.823 305.877 272.58 192.62 270.838 173.221Z" fill="#3B4EF2"/>
<path d="M234.365 164.257C234.365 164.257 231.911 252.92 246.311 301.071" stroke="black" stroke-width="1.5"/>
<path d="M256.292 112.136C256.292 112.136 284.196 128.612 283.348 156.036C282.499 183.46 262.709 194.486 262.709 194.486" stroke="black" stroke-width="1.5"/>
<path d="M255.358 179.36C255.358 179.36 259.458 194.345 266.384 197.454" stroke="black" stroke-width="1.5"/>
<path d="M251.55 139.827L266.384 157.921L255.73 180.6" stroke="black" stroke-width="1.5"/>
<path d="M256.67 178.6L266.384 157.921L255.008 144.045V144.045C255.008 144.045 261.939 164.787 256.67 178.6Z" fill="black"/>
<path d="M229.571 115.627L209.69 131.373C209.69 131.373 186.773 102.172 181.71 100.623C176.647 99.0736 170.483 102.319 170.483 102.319V104.237L176.345 105.303C176.345 105.303 175.482 112.126 179.212 115.324C179.212 115.324 190.779 157.599 208.144 157.732C220.018 157.823 224.446 154.528 224.446 154.528" stroke="black" stroke-width="1.5"/>
<path d="M191.584 306.584H316.532" stroke="black" stroke-width="1.5"/>
<path d="M301.755 305.601C301.755 305.601 303.908 301.791 298.442 300.963C295.195 300.461 291.872 300.863 288.837 302.123C288.837 302.123 292.646 297.486 286.684 295.498C280.722 293.511 274.594 298.148 274.594 298.148C274.594 298.148 280.556 287.052 275.919 286.224C271.282 285.396 268.798 290.199 268.798 290.199C268.798 290.199 269.295 276.453 259.689 276.121C250.083 275.79 251.077 293.676 251.077 293.676C251.077 293.676 246.937 285.727 239.981 285.396C233.025 285.065 236.503 298.712 236.503 298.712C236.503 298.712 235.178 295.498 230.541 295.167C225.904 294.836 226.235 298.722 226.235 298.722C226.235 298.722 220.273 290.364 213.649 290.861C207.024 291.358 209.84 299.638 209.84 299.638C203.049 299.142 201.559 306.584 201.559 306.584H306.557L301.755 305.601Z" fill="black"/>
</svg>
