<svg width="60" height="60" viewBox="0 0 60 60" fill="none" xmlns="http://www.w3.org/2000/svg">
<circle cx="30" cy="30" r="30" fill="#EEFFEE"/>
<path d="M30 45C21.7155 45 15 38.2845 15 30C15 21.7155 21.7155 15 30 15C38.2845 15 45 21.7155 45 30C45 38.2845 38.2845 45 30 45ZM30 42C33.1826 42 36.2348 40.7357 38.4853 38.4853C40.7357 36.2348 42 33.1826 42 30C42 26.8174 40.7357 23.7652 38.4853 21.5147C36.2348 19.2643 33.1826 18 30 18C26.8174 18 23.7652 19.2643 21.5147 21.5147C19.2643 23.7652 18 26.8174 18 30C18 33.1826 19.2643 36.2348 21.5147 38.4853C23.7652 40.7357 26.8174 42 30 42V42ZM28.5045 36L22.14 29.6355L24.261 27.5145L28.5045 31.758L36.9885 23.2725L39.111 25.3935L28.5045 36Z" fill="#318509"/>
</svg>
