<svg width="16" height="16" viewBox="0 0 16 16" fill="none" xmlns="http://www.w3.org/2000/svg">
<path d="M2.90641 3.75035H13.094L12.3197 13.7921C12.3 14.0477 12.2075 14.2621 12.1091 14.381C12.0109 14.4995 11.9411 14.5304 11.8337 14.5304H4.16574C4.05819 14.5304 3.98885 14.4995 3.89041 14.381C3.79197 14.2621 3.6993 14.0477 3.67974 13.7921L2.90641 3.75035ZM1.09863 2.30591C0.135743 2.30591 0.135743 3.75035 1.09863 3.75035H1.4573L2.23841 13.9024C2.27908 14.4219 2.45619 14.911 2.77796 15.3017C3.10063 15.6915 3.60552 15.9748 4.16552 15.9748H11.8335C12.3949 15.9748 12.8984 15.6915 13.2213 15.3017C13.5442 14.911 13.7186 14.4219 13.7595 13.9024L14.542 3.75035H14.902C15.8651 3.75035 15.8651 2.30591 14.902 2.30591H1.09863Z" fill="#ccc"/>
<path d="M6.43215 0.00634766C5.46793 0.00634766 5.46793 1.45079 6.43215 1.45079H9.5686C9.96793 1.45079 10.2908 1.1279 10.2908 0.728126C10.2908 0.328792 9.96793 0.00634766 9.5686 0.00634766H6.43215Z" fill="#ccc"/>
</svg>
