<svg width="13" height="9" viewBox="0 0 13 9" fill="none" xmlns="http://www.w3.org/2000/svg">
<path d="M0.141821 7.81194C0.137686 7.99994 0.192184 8.18456 0.297822 8.34012C0.403461 8.49569 0.555018 8.61448 0.731288 8.67997C0.907558 8.74547 1.09983 8.75441 1.28142 8.70556C1.46301 8.65672 1.62479 8.5525 1.74441 8.40742L6.48697 2.87148L11.2279 8.40742C11.3016 8.50778 11.3953 8.59183 11.503 8.65431C11.6108 8.71679 11.7303 8.75635 11.8541 8.7705C11.9778 8.78466 12.1031 8.77312 12.2222 8.73659C12.3413 8.70006 12.4516 8.63934 12.5461 8.55823C12.6406 8.47712 12.7173 8.37737 12.7715 8.26522C12.8257 8.15306 12.8561 8.03093 12.8609 7.90647C12.8657 7.782 12.8449 7.65789 12.7995 7.5419C12.7541 7.4259 12.6852 7.32053 12.5972 7.23238L7.17432 0.894228C7.08938 0.794695 6.98395 0.71477 6.86513 0.659964C6.74632 0.605159 6.61699 0.576778 6.48614 0.576778C6.35529 0.576778 6.22596 0.605159 6.10714 0.659964C5.98832 0.71477 5.88279 0.794695 5.79785 0.894228L0.369719 7.23238C0.227503 7.39249 0.14665 7.59785 0.141612 7.81194H0.141821Z" fill="black"/>
</svg>
