<svg width="20" height="20" viewBox="0 0 20 20" fill="none" xmlns="http://www.w3.org/2000/svg">
  <g clip-path="url(#upload-icon)">
  <path d="M16.6636 7.35174C15.7393 3.66941 12.0049 1.43364 8.32253 2.358C5.44487 3.08038 3.35537 5.56748 3.14009 8.52658C1.09684 8.86354 -0.286409 10.793 0.0505464 12.8363C0.350083 14.6528 1.92405 15.9831 3.76503 15.9758H6.88967V14.7259H3.76503C2.38447 14.7259 1.2653 13.6067 1.2653 12.2262C1.2653 10.8456 2.38447 9.72644 3.76503 9.72644C4.11017 9.72644 4.38997 9.44668 4.38997 9.10151C4.38683 5.99524 6.90247 3.47458 10.0087 3.47151C12.6976 3.46881 15.0123 5.36978 15.5325 8.00788C15.5838 8.27131 15.7976 8.47251 16.0637 8.50784C17.7722 8.75114 18.9599 10.3333 18.7166 12.0418C18.4982 13.5759 17.1883 14.7182 15.6387 14.7259H13.139V15.9758H15.6387C18.0547 15.9685 20.0073 14.004 20 11.588C19.9939 9.57691 18.6173 7.82901 16.6636 7.35174Z" fill="black"/>
  <path d="M9.57053 9.90776L7.0708 12.4075L7.95197 13.2886L9.3893 11.8576V17.8506H10.6392V11.8576L12.0703 13.2886L12.9514 12.4075L10.4517 9.90776C10.2079 9.66543 9.8143 9.66543 9.57053 9.90776Z" fill="black"/>
  </g>
  <defs>
  <clipPath id="upload-icon">
  <rect width="20" height="20" fill="white"/>
  </clipPath>
  </defs>
  </svg>
  