<svg width="135" height="139" viewBox="0 0 135 139" fill="none" xmlns="http://www.w3.org/2000/svg">
<path d="M112.053 130.866H101.64V126.461H91.0015V121.255L83.0791 114.246H71.0824V94.0211H55.4638V68.9902L35.7711 86.4117V119.653H25.3588V134.377H21.058V130.266H13.362V138.489H117.259V135.472L112.053 130.866Z" fill="#F4F4F4"/>
<path d="M8.38226 138.489H122.239" stroke="black" stroke-width="0.5"/>
<rect x="56.6681" y="99.0879" width="1.42252" height="1.25845" fill="white"/>
<rect x="60.1295" y="99.0879" width="1.42252" height="1.25845" fill="white"/>
<rect x="63.591" y="99.0879" width="1.42252" height="1.25845" fill="white"/>
<rect x="56.6681" y="102.481" width="1.42252" height="1.25845" fill="white"/>
<rect x="60.1295" y="102.481" width="1.42252" height="1.25845" fill="white"/>
<rect x="63.591" y="102.481" width="1.42252" height="1.25845" fill="white"/>
<rect x="56.6681" y="105.874" width="1.42252" height="1.25845" fill="white"/>
<rect x="60.1295" y="105.874" width="1.42252" height="1.25845" fill="white"/>
<rect x="63.591" y="105.874" width="1.42252" height="1.25845" fill="white"/>
<rect x="56.6681" y="109.267" width="1.42252" height="1.25845" fill="white"/>
<rect x="60.1295" y="109.267" width="1.42252" height="1.25845" fill="white"/>
<rect x="63.591" y="109.267" width="1.42252" height="1.25845" fill="white"/>
<rect x="56.6681" y="112.66" width="1.42252" height="1.25845" fill="white"/>
<rect x="60.1295" y="112.66" width="1.42252" height="1.25845" fill="white"/>
<rect x="63.591" y="112.66" width="1.42252" height="1.25845" fill="white"/>
<rect x="56.6681" y="116.053" width="1.42252" height="1.25845" fill="white"/>
<rect x="60.1295" y="116.053" width="1.42252" height="1.25845" fill="white"/>
<rect x="63.591" y="116.053" width="1.42252" height="1.25845" fill="white"/>
<rect x="56.6681" y="119.446" width="1.42252" height="1.25845" fill="white"/>
<rect x="60.1295" y="119.446" width="1.42252" height="1.25845" fill="white"/>
<rect x="63.591" y="119.446" width="1.42252" height="1.25845" fill="white"/>
<rect x="56.6681" y="122.839" width="1.42252" height="1.25845" fill="white"/>
<rect x="60.1295" y="122.839" width="1.42252" height="1.25845" fill="white"/>
<rect x="63.591" y="122.839" width="1.42252" height="1.25845" fill="white"/>
<rect x="56.6681" y="126.232" width="1.42252" height="1.25845" fill="white"/>
<rect x="60.1295" y="126.232" width="1.42252" height="1.25845" fill="white"/>
<rect x="63.591" y="126.232" width="1.42252" height="1.25845" fill="white"/>
<path d="M107.849 59.8804C107.849 59.8804 83.397 93.8755 107.089 130.823L107.663 138.163L121.977 130.536L113.988 100.576L125.139 81.1435L117.099 55.1802" fill="#E2E2E2"/>
<path d="M111.157 52.9458L134.401 53.3544L134.189 76.5799V138.163H116.088L118.001 134.733L111.157 52.9458Z" fill="#EDEEEF"/>
<path d="M125.16 12.0159V19.1429L116.331 21.3128V9.28568L125.16 7.11572V12.0159Z" fill="#EDEEEF"/>
<path d="M120.172 14.4816C120.303 14.4816 120.408 14.376 120.408 14.2456C120.408 14.1152 120.303 14.0095 120.172 14.0095C120.042 14.0095 119.936 14.1152 119.936 14.2456C119.936 14.376 120.042 14.4816 120.172 14.4816Z" fill="black"/>
<path d="M123.798 14.4816C123.928 14.4816 124.034 14.376 124.034 14.2456C124.034 14.1152 123.928 14.0095 123.798 14.0095C123.668 14.0095 123.562 14.1152 123.562 14.2456C123.562 14.376 123.668 14.4816 123.798 14.4816Z" fill="black"/>
<path d="M122.734 15.6538V12.0159H124.557" stroke="black" stroke-width="0.5"/>
<path d="M119.728 12.0159H121.55" stroke="black" stroke-width="0.5"/>
<path d="M116.912 13.8799V15.1432C116.585 15.1432 116.271 15.0132 116.04 14.7818C115.808 14.5504 115.678 14.2366 115.678 13.9093C115.678 13.8714 115.68 13.834 115.683 13.797C115.753 13.0308 116.912 13.1105 116.912 13.8799Z" fill="#EDEEEF"/>
<path d="M116.912 15.1431C116.585 15.1431 116.271 15.0131 116.04 14.7817C115.808 14.5503 115.678 14.2364 115.678 13.9092" stroke="black" stroke-width="0.5"/>
<path d="M121.937 16.5506C121.247 16.5506 120.688 15.9915 120.688 15.3018" stroke="#3B4EF2" stroke-width="0.5" stroke-linecap="round" stroke-linejoin="round"/>
<path d="M125.16 19.1428L116.331 21.3128" stroke="black" stroke-width="0.5"/>
<path d="M122.734 15.6567L121.937 15.8526" stroke="black" stroke-width="0.5" stroke-linecap="round"/>
<path d="M117.039 13.5836C117.039 13.5836 118.759 11.9746 118.786 10.4212C118.786 10.4212 125.278 11.3921 126.249 11.1147L125.555 9.78318C126.335 9.47939 127.087 9.10811 127.802 8.67358C127.802 8.67358 119.452 2.84818 115.652 8.97871C115.652 8.97871 113.108 10.1993 115.739 13.5836" stroke="black" stroke-width="0.5"/>
<path d="M134.401 34.0752V53.3544L107.089 60.0672V38.5953C107.089 30.9818 112.287 24.3519 119.681 22.5347H119.681C123.226 21.6633 126.976 22.4701 129.849 24.7228C132.723 26.9755 134.401 30.424 134.401 34.0752L134.401 34.0752Z" fill="#3B4EF2"/>
<path d="M130.049 46.8993C126.283 51.2294 118.106 50.7553 110.149 48.306C111.688 51.3396 115.85 53.5145 120.745 53.5145C126.95 53.5145 131.98 50.0214 131.98 45.7125C131.98 45.3097 131.936 44.9081 131.848 44.5149C131.306 45.3514 130.704 46.1482 130.049 46.8993Z" fill="black"/>
<path d="M118.001 134.733L111.157 52.9458" stroke="black" stroke-width="0.5"/>
<path d="M132.697 27.9338C132.697 27.9338 138.372 37.3291 130.049 46.8994C121.726 56.4697 91.851 42.572 90.4362 35.7479C89.0215 28.9239 90.1034 29.5064 91.6845 30.9212C93.2657 32.3359 94.0979 32.003 94.0979 32.003C94.0979 32.003 94.3476 29.34 95.1798 30.089C96.012 30.8379 96.2616 32.2527 96.2616 32.2527L116.331 37.5788L121.313 29.34" stroke="black" stroke-width="0.5"/>
<path d="M115.164 24.385C115.164 24.385 107.753 28.9985 104.712 34.4953" stroke="black" stroke-width="0.5"/>
<path d="M95.2073 41.1262C95.2073 41.1262 84.5831 42.1003 79.257 42.9879C73.9309 43.8756 79.9227 44.9852 79.9227 44.9852C79.9227 44.9852 82.6967 48.9798 87.468 47.4263C87.468 47.4263 97.1954 52.0867 107.089 49.5346" stroke="black" stroke-width="0.5"/>
<rect x="11.7949" y="63.0732" width="65.256" height="47.3167" fill="#D6D6D6"/>
<path d="M77.0509 63.0732V110.39" stroke="black" stroke-width="0.5"/>
<path d="M22.3902 79.2881L21.8099 77.3379C20.8924 74.2543 18.0576 72.1401 14.8404 72.1401H0.41394L11.7949 110.39H77.0509L67.7968 79.2881H22.3902Z" fill="#EDEEEF"/>
<path d="M11.7949 110.39H77.0509" stroke="black" stroke-width="0.5"/>
<path d="M77.0509 110.39L67.7968 79.2881H22.3901" stroke="black" stroke-width="0.5"/>
<path d="M35.5905 9.24292V54.376H70.2496V21.6749L57.8177 9.24292H35.5905Z" fill="#D6D6D6"/>
<path d="M35.5905 54.3761H70.2496V21.675" stroke="black" stroke-width="0.5"/>
<path d="M41.7574 28.4373H56.2316" stroke="black" stroke-width="0.5"/>
<path d="M41.7574 31.4849H56.2316" stroke="black" stroke-width="0.5"/>
<path d="M41.7574 34.5327H56.2316" stroke="black" stroke-width="0.5"/>
<path d="M41.7574 37.5803H48.9945" stroke="black" stroke-width="0.5"/>
<path d="M23.29 0.86792V46.001H57.949V13.2999L45.517 0.86792H23.29Z" fill="#EDEEEF"/>
<path d="M23.29 46.0011H57.949V13.3" stroke="black" stroke-width="0.5"/>
<path d="M57.949 13.2999L45.517 0.86792V13.2999H57.949Z" fill="#3B4EF2"/>
<path d="M33.3823 20.0623H47.8565" stroke="black" stroke-width="0.5"/>
<path d="M33.3823 23.1099H47.8565" stroke="black" stroke-width="0.5"/>
<path d="M33.3823 26.1575H47.8565" stroke="black" stroke-width="0.5"/>
<path d="M33.3823 29.2053H40.6194" stroke="black" stroke-width="0.5"/>
</svg>
