<svg width="16" height="18" viewBox="0 0 16 18" fill="none" xmlns="http://www.w3.org/2000/svg">
<path d="M12.3333 12.3334C13.7142 12.3334 14.8333 13.4526 14.8333 14.8334C14.8333 16.2142 13.7142 17.3334 12.3333 17.3334C10.9525 17.3334 9.83333 16.2142 9.83333 14.8334C9.83333 13.4526 10.9525 12.3334 12.3333 12.3334ZM4 9.00008C5.84166 9.00008 7.33333 10.4917 7.33333 12.3334C7.33333 14.1751 5.84166 15.6667 4 15.6667C2.15833 15.6667 0.666664 14.1751 0.666664 12.3334C0.666664 10.4917 2.15833 9.00008 4 9.00008ZM12.3333 14.0001C11.8733 14.0001 11.5 14.3734 11.5 14.8334C11.5 15.2934 11.8733 15.6667 12.3333 15.6667C12.7933 15.6667 13.1667 15.2934 13.1667 14.8334C13.1667 14.3734 12.7933 14.0001 12.3333 14.0001ZM4 10.6667C3.07916 10.6667 2.33333 11.4126 2.33333 12.3334C2.33333 13.2542 3.07916 14.0001 4 14.0001C4.92083 14.0001 5.66666 13.2542 5.66666 12.3334C5.66666 11.4126 4.92083 10.6667 4 10.6667ZM11.0833 0.666748C13.615 0.666748 15.6667 2.71841 15.6667 5.25008C15.6667 7.78175 13.615 9.83342 11.0833 9.83342C8.55166 9.83342 6.5 7.78175 6.5 5.25008C6.5 2.71841 8.55166 0.666748 11.0833 0.666748ZM11.0833 2.33341C9.4725 2.33341 8.16666 3.63925 8.16666 5.25008C8.16666 6.86091 9.4725 8.16675 11.0833 8.16675C12.6942 8.16675 14 6.86091 14 5.25008C14 3.63925 12.6942 2.33341 11.0833 2.33341Z" fill="#3B4EF2"/>
</svg>
